C:/Program Files/Krita (x64)/bin/ffmpeg.exe -hide_banner -y -y -r 24 -start_number 0 -start_number_range 1 -i E:/videos/art-jam-2025/rendered animations/frame%04d.png -c:v libopenh264 -b:v 5000k E:/videos/art-jam-2025/rendered animations/5.0juniorNO.mkv
=====================================================
Input #0, image2, from 'E:/videos/art-jam-2025/rendered animations/frame%04d.png':
  Duration: 00:00:01.96, start: 0.000000, bitrate: N/A
  Stream #0:0: Video: png, rgba64be(pc), 1920x1080 [SAR 2834:2834 DAR 16:9], 25 fps, 25 tbr, 25 tbn, 25 tbc
Stream mapping:
  Stream #0:0 -> #0:0 (png (native) -> h264 (libopenh264))
Press [q] to stop, [?] for help
[libopenh264 @ 0000023b28ee1f00] Slice count will be set automatically
[libopenh264 @ 0000023b28ee1f00] [OpenH264] this = 0x0000023B28F3C950, Warning:bEnableFrameSkip = 0,bitrate can't be controlled for RC_QUALITY_MODE,RC_BITRATE_MODE and RC_TIMESTAMP_MODE without enabling skip frame.
Output #0, matroska, to 'E:/videos/art-jam-2025/rendered animations/5.0juniorNO.mkv':
  Metadata:
    encoder         : Lavf58.76.100
  Stream #0:0: Video: h264 (H264 / 0x34363248), yuv420p(tv, progressive), 1920x1080 [SAR 1:1 DAR 16:9], q=2-31, 5000 kb/s, 24 fps, 1k tbn
    Metadata:
      encoder         : Lavc58.134.100 libopenh264
    Side data:
      cpb: bitrate max/min/avg: 5000000/0/5000000 buffer size: 0 vbv_delay: N/A
frame=    1 fps=0.0 q=-0.0 size=       1kB time=00:00:00.00 bitrate=4792.0kbits/s speed=0.0116x    frame=   10 fps=0.0 q=-0.0 size=       1kB time=00:00:00.37 bitrate=  12.7kbits/s speed=0.631x    frame=   25 fps= 23 q=-0.0 size=       1kB time=00:00:01.00 bitrate=   4.8kbits/s speed=0.913x    frame=   41 fps= 25 q=-0.0 size=       1kB time=00:00:01.66 bitrate=   2.9kbits/s speed=1.03x    frame=   49 fps= 26 q=-0.0 Lsize=    1238kB time=00:00:02.00 bitrate=5068.3kbits/s speed=1.04x    
video:1237kB audio:0kB subtitle:0kB other streams:0kB global headers:0kB muxing overhead: 0.079892%
